<svg width="24" height="24" viewBox="0 0 24 24" fill="none" xmlns="http://www.w3.org/2000/svg">
<path d="M8.364 9.53599L5.828 6.99999H13C14.5913 6.99999 16.1174 7.63213 17.2426 8.75735C18.3679 9.88257 19 11.4087 19 13C19 14.5913 18.3679 16.1174 17.2426 17.2426C16.1174 18.3678 14.5913 19 13 19V21C15.1217 21 17.1566 20.1571 18.6569 18.6568C20.1571 17.1566 21 15.1217 21 13C21 10.8783 20.1571 8.84342 18.6569 7.34313C17.1566 5.84284 15.1217 4.99999 13 4.99999H5.828L8.364 2.46399L6.95 1.04999L2 5.99999L6.95 10.95L8.364 9.53599Z" fill="white"/>
</svg>
