<svg width="24" height="24" viewBox="0 0 24 24" fill="none" xmlns="http://www.w3.org/2000/svg">
<path d="M11 6.99999H18.172L15.636 9.53599L17.05 10.95L22 5.99999L17.05 1.04999L15.636 2.46399L18.172 4.99999H11C8.87827 4.99999 6.84344 5.84284 5.34315 7.34313C3.84285 8.84342 3 10.8783 3 13C3 15.1217 3.84285 17.1566 5.34315 18.6568C6.84344 20.1571 8.87827 21 11 21V19C9.4087 19 7.88258 18.3678 6.75736 17.2426C5.63214 16.1174 5 14.5913 5 13C5 11.4087 5.63214 9.88257 6.75736 8.75735C7.88258 7.63213 9.4087 6.99999 11 6.99999Z" fill="white"/>
</svg>
